<svg width="26" height="6" viewBox="0 0 26 6" fill="none" xmlns="http://www.w3.org/2000/svg">
<g clip-path="url(#clip0_956_7493)">
<g filter="url(#filter0_d_956_7493)">
<path fill-rule="evenodd" clip-rule="evenodd" d="M6 3C6 4.65685 4.65685 6 3 6C1.34315 6 0 4.65685 0 3C0 1.34315 1.34315 0 3 0C4.65685 0 6 1.34315 6 3ZM16 3C16 4.65685 14.6569 6 13 6C11.3431 6 10 4.65685 10 3C10 1.34315 11.3431 0 13 0C14.6569 0 16 1.34315 16 3ZM23 6C24.6569 6 26 4.65685 26 3C26 1.34315 24.6569 0 23 0C21.3431 0 20 1.34315 20 3C20 4.65685 21.3431 6 23 6Z" fill="#80858A"/>
</g>
</g>
<defs>
<filter id="filter0_d_956_7493" x="-4" y="0" width="34" height="14" filterUnits="userSpaceOnUse" color-interpolation-filters="sRGB">
<feFlood flood-opacity="0" result="BackgroundImageFix"/>
<feColorMatrix in="SourceAlpha" type="matrix" values="0 0 0 0 0 0 0 0 0 0 0 0 0 0 0 0 0 0 127 0" result="hardAlpha"/>
<feOffset dy="4"/>
<feGaussianBlur stdDeviation="2"/>
<feComposite in2="hardAlpha" operator="out"/>
<feColorMatrix type="matrix" values="0 0 0 0 0 0 0 0 0 0 0 0 0 0 0 0 0 0 0.25 0"/>
<feBlend mode="normal" in2="BackgroundImageFix" result="effect1_dropShadow_956_7493"/>
<feBlend mode="normal" in="SourceGraphic" in2="effect1_dropShadow_956_7493" result="shape"/>
</filter>
<clipPath id="clip0_956_7493">
<rect width="26" height="6" fill="white"/>
</clipPath>
</defs>
</svg>
