<svg width="26" height="26" viewBox="0 0 26 26" fill="none" xmlns="http://www.w3.org/2000/svg">
<path fill-rule="evenodd" clip-rule="evenodd" d="M14.375 2C14.375 1.24061 13.7594 0.625 13 0.625C12.2406 0.625 11.625 1.24061 11.625 2V11.625H2C1.24061 11.625 0.625 12.2406 0.625 13C0.625 13.7594 1.24061 14.375 2 14.375H11.625V24C11.625 24.7594 12.2406 25.375 13 25.375C13.7594 25.375 14.375 24.7594 14.375 24V14.375H24.5C25.2594 14.375 25.875 13.7594 25.875 13C25.875 12.2406 25.2594 11.625 24.5 11.625H14.375V2Z" fill="#D4D4D4"/>
</svg>
